<?xml version="1.0" standalone="no"?>
<!DOCTYPE svg PUBLIC "-//W3C//DTD SVG 20010904//EN"
 "http://www.w3.org/TR/2001/REC-SVG-20010904/DTD/svg10.dtd">
<svg version="1.0" xmlns="http://www.w3.org/2000/svg"
 width="85.000000pt" height="80.000000pt" viewBox="0 0 85.000000 80.000000"
 preserveAspectRatio="xMidYMid meet">

<g transform="translate(0.000000,80.000000) scale(0.100000,-0.100000)"
fill="#000000" stroke="none">
<path d="M336 677 c-86 -49 -102 -171 -33 -245 12 -13 55 -42 94 -64 40 -22
82 -51 93 -65 29 -37 26 -88 -6 -118 -35 -32 -81 -32 -128 0 -39 27 -46 29
-46 18 0 -20 69 -53 109 -53 53 0 77 12 96 50 35 68 7 113 -116 187 -47 28
-88 61 -100 79 -25 41 -25 109 1 152 22 35 88 72 130 72 31 0 100 -31 119 -53
7 -10 18 -17 24 -17 18 0 -37 52 -70 66 -49 21 -122 17 -167 -9z"/>
<path d="M385 620 c-43 -17 -63 -67 -45 -111 9 -20 40 -45 104 -85 112 -69
129 -90 134 -169 3 -50 0 -66 -20 -95 -53 -80 -167 -93 -254 -30 -26 18 -45
27 -42 19 2 -8 25 -27 50 -42 81 -50 163 -48 224 5 47 41 64 77 64 133 0 87
-38 135 -163 205 -63 35 -87 62 -87 97 0 55 81 83 135 47 15 -10 25 -12 25 -5
0 14 -54 41 -82 40 -13 0 -32 -4 -43 -9z"/>
</g>
</svg>
